<svg xmlns="http://www.w3.org/2000/svg" xmlns:xlink="http://www.w3.org/1999/xlink" width="100%" height="100%" version="1.1" viewBox="0 0 7 12" xml:space="preserve" style="fill-rule:evenodd;clip-rule:evenodd;stroke-linejoin:round;stroke-miterlimit:2"><path d="M0.281,5.281c-0.187,0.209 -0.281,0.448 -0.281,0.719c0,0.271 0.094,0.51 0.281,0.719l5,5c0.209,0.187 0.448,0.281 0.719,0.281c0.271,-0 0.51,-0.094 0.719,-0.281c0.187,-0.209 0.281,-0.448 0.281,-0.719c0,-0.271 -0.094,-0.51 -0.281,-0.719l-4.313,-4.281l4.313,-4.281c0.187,-0.209 0.281,-0.448 0.281,-0.719c0,-0.271 -0.094,-0.51 -0.281,-0.719c-0.209,-0.187 -0.448,-0.281 -0.719,-0.281c-0.271,-0 -0.51,0.094 -0.719,0.281l-5,5Z" style="fill:#15803d;fill-rule:nonzero"/></svg>