<?xml version="1.0" encoding="UTF-8" standalone="no"?><!DOCTYPE svg PUBLIC "-//W3C//DTD SVG 1.1//EN" "http://www.w3.org/Graphics/SVG/1.1/DTD/svg11.dtd"><svg width="100%" height="100%" viewBox="0 0 12 11" version="1.1" xmlns="http://www.w3.org/2000/svg" xmlns:xlink="http://www.w3.org/1999/xlink" xml:space="preserve" xmlns:serif="http://www.serif.com/" style="fill-rule:evenodd;clip-rule:evenodd;stroke-linejoin:round;stroke-miterlimit:2;"><path d="M6,9.732c1.121,-0.015 2.125,-0.233 3.012,-0.653c0.902,-0.436 1.618,-1.02 2.148,-1.751c0.529,-0.732 0.801,-1.549 0.817,-2.452c-0.016,-0.902 -0.288,-1.719 -0.817,-2.451c-0.53,-0.731 -1.246,-1.315 -2.148,-1.751c-0.887,-0.42 -1.891,-0.638 -3.012,-0.654c-1.121,0.016 -2.125,0.234 -3.012,0.654c-0.902,0.436 -1.618,1.02 -2.148,1.751c-0.529,0.732 -0.801,1.549 -0.817,2.451c0.016,1.074 0.389,2.016 1.121,2.825c-0.078,0.576 -0.249,1.067 -0.514,1.471c-0.124,0.218 -0.241,0.382 -0.35,0.49c-0.047,0.063 -0.085,0.109 -0.117,0.141c0,0.015 -0.007,0.023 -0.023,0.023l0,0.023c-0.109,0.109 -0.14,0.241 -0.093,0.397c0.078,0.156 0.194,0.234 0.35,0.234c0.685,-0.032 1.323,-0.179 1.914,-0.444c0.545,-0.249 0.965,-0.49 1.261,-0.724c0.747,0.28 1.556,0.42 2.428,0.42Zm-2.988,-5.603c0.218,0 0.397,0.07 0.537,0.21c0.14,0.141 0.21,0.32 0.21,0.537c-0,0.218 -0.07,0.397 -0.21,0.537c-0.14,0.141 -0.319,0.211 -0.537,0.211c-0.218,-0 -0.397,-0.07 -0.537,-0.211c-0.14,-0.14 -0.21,-0.319 -0.21,-0.537c-0,-0.217 0.07,-0.396 0.21,-0.537c0.14,-0.14 0.319,-0.21 0.537,-0.21Zm2.988,0c0.218,0 0.397,0.07 0.537,0.21c0.14,0.141 0.21,0.32 0.21,0.537c0,0.218 -0.07,0.397 -0.21,0.537c-0.14,0.141 -0.319,0.211 -0.537,0.211c-0.218,-0 -0.397,-0.07 -0.537,-0.211c-0.14,-0.14 -0.21,-0.319 -0.21,-0.537c-0,-0.217 0.07,-0.396 0.21,-0.537c0.14,-0.14 0.319,-0.21 0.537,-0.21Zm2.241,0.747c0,-0.217 0.07,-0.396 0.21,-0.537c0.14,-0.14 0.319,-0.21 0.537,-0.21c0.218,0 0.397,0.07 0.537,0.21c0.14,0.141 0.21,0.32 0.21,0.537c0,0.218 -0.07,0.397 -0.21,0.537c-0.14,0.141 -0.319,0.211 -0.537,0.211c-0.218,-0 -0.397,-0.07 -0.537,-0.211c-0.14,-0.14 -0.21,-0.319 -0.21,-0.537Z" style="fill:#15803d;fill-rule:nonzero;"/></svg>